<svg xmlns="http://www.w3.org/2000/svg" viewBox="0 0 1200 620" font-family="'SF Mono', 'Fira Code', 'Cascadia Code', monospace">
  <defs>
    <marker id="a" viewBox="0 0 10 10" refX="9" refY="5" markerWidth="6" markerHeight="6" orient="auto-start-auto">
      <path d="M 0 0 L 10 5 L 0 10 z" fill="#475569"/>
    </marker>
    <marker id="a-purple" viewBox="0 0 10 10" refX="9" refY="5" markerWidth="6" markerHeight="6" orient="auto-start-auto">
      <path d="M 0 0 L 10 5 L 0 10 z" fill="#a78bfa"/>
    </marker>
    <filter id="gl" x="-50%" y="-50%" width="200%" height="200%">
      <feGaussianBlur stdDeviation="2" result="blur"/>
      <feMerge><feMergeNode in="blur"/><feMergeNode in="SourceGraphic"/></feMerge>
    </filter>
  </defs>

  <!-- Background -->
  <rect width="1200" height="620" fill="#0a0e17" rx="16"/>
  <pattern id="grid3" width="40" height="40" patternUnits="userSpaceOnUse">
    <path d="M 40 0 L 0 0 0 40" fill="none" stroke="#1a2035" stroke-width="0.5"/>
  </pattern>
  <rect width="1200" height="620" fill="url(#grid3)" rx="16"/>

  <!-- Title -->
  <text x="600" y="38" text-anchor="middle" fill="#94a3b8" font-size="11" letter-spacing="3" font-weight="600">DEPENDENCY LAYERS — PARALLEL EXECUTION WITH ORDERING</text>
  <line x1="330" y1="48" x2="870" y2="48" stroke="#1e293b" stroke-width="1"/>

  <!-- ====== LAYER 0 ====== -->
  <rect x="60" y="70" width="80" height="440" rx="8" fill="#3b82f6" opacity="0.04" stroke="#3b82f6" stroke-width="0.5" stroke-dasharray="4 4"/>
  <text x="100" y="92" text-anchor="middle" fill="#3b82f6" font-size="10" font-weight="700">LAYER 0</text>
  <text x="100" y="106" text-anchor="middle" fill="#3b82f6" font-size="8" opacity="0.6">parallel</text>

  <!-- Story US-001 -->
  <rect x="160" y="78" width="250" height="52" rx="8" fill="#3b82f6" opacity="0.1" stroke="#3b82f6" stroke-width="1.5"/>
  <circle cx="180" cy="104" r="8" fill="#3b82f6" opacity="0.3"/>
  <text x="180" y="108" text-anchor="middle" fill="#60a5fa" font-size="8" font-weight="700">1</text>
  <text x="200" y="98" fill="#60a5fa" font-size="11" font-weight="700">US-001</text>
  <text x="200" y="118" fill="#94a3b8" font-size="9">Auth service setup</text>
  <text x="370" y="108" text-anchor="end" fill="#3b82f6" font-size="8">SLOT 1 · Claude</text>

  <!-- Story US-002 -->
  <rect x="160" y="142" width="250" height="52" rx="8" fill="#eab308" opacity="0.1" stroke="#eab308" stroke-width="1.5"/>
  <circle cx="180" cy="168" r="8" fill="#eab308" opacity="0.3"/>
  <text x="180" y="172" text-anchor="middle" fill="#fbbf24" font-size="8" font-weight="700">2</text>
  <text x="200" y="162" fill="#fbbf24" font-size="11" font-weight="700">US-002</text>
  <text x="200" y="182" fill="#94a3b8" font-size="9">Database schema</text>
  <text x="370" y="172" text-anchor="end" fill="#eab308" font-size="8">SLOT 2 · Gemini</text>

  <!-- Story US-003 -->
  <rect x="160" y="206" width="250" height="52" rx="8" fill="#22c55e" opacity="0.1" stroke="#22c55e" stroke-width="1.5"/>
  <circle cx="180" cy="232" r="8" fill="#22c55e" opacity="0.3"/>
  <text x="180" y="236" text-anchor="middle" fill="#4ade80" font-size="8" font-weight="700">3</text>
  <text x="200" y="226" fill="#4ade80" font-size="11" font-weight="700">US-003</text>
  <text x="200" y="246" fill="#94a3b8" font-size="9">UI component library</text>
  <text x="370" y="236" text-anchor="end" fill="#22c55e" font-size="8">SLOT 3 · Codex</text>

  <!-- Parallel indicator -->
  <line x1="148" y1="86" x2="148" y2="250" stroke="#3b82f6" stroke-width="2" stroke-dasharray="3 3" opacity="0.4"/>
  <text x="144" y="170" text-anchor="end" fill="#3b82f6" font-size="16" opacity="0.3">||</text>

  <!-- ====== LAYER 1 ====== -->
  <rect x="60" y="280" width="80" height="1" rx="0" fill="none"/>
  <text x="100" y="300" text-anchor="middle" fill="#8b5cf6" font-size="10" font-weight="700">LAYER 1</text>
  <text x="100" y="314" text-anchor="middle" fill="#8b5cf6" font-size="8" opacity="0.6">parallel</text>

  <!-- Transition zone -->
  <rect x="160" y="272" width="880" height="32" rx="6" fill="#8b5cf6" opacity="0.04" stroke="#8b5cf6" stroke-width="0.5" stroke-dasharray="6 3"/>
  <text x="600" y="292" text-anchor="middle" fill="#8b5cf6" font-size="9">StatusMonitor detects Layer 0 complete → LayeredDispatcher launches Layer 1</text>

  <!-- Story US-004 depends on US-001 -->
  <rect x="160" y="316" width="250" height="52" rx="8" fill="#3b82f6" opacity="0.1" stroke="#3b82f6" stroke-width="1.5"/>
  <circle cx="180" cy="342" r="8" fill="#3b82f6" opacity="0.3"/>
  <text x="180" y="346" text-anchor="middle" fill="#60a5fa" font-size="8" font-weight="700">4</text>
  <text x="200" y="336" fill="#60a5fa" font-size="11" font-weight="700">US-004</text>
  <text x="200" y="356" fill="#94a3b8" font-size="9">Login endpoints</text>
  <text x="370" y="346" text-anchor="end" fill="#3b82f6" font-size="8">SLOT 1 · Claude</text>

  <!-- Dependency arrow US-001 -> US-004 -->
  <path d="M 410 104 Q 450 104 450 220 Q 450 342 410 342" fill="none" stroke="#a78bfa" stroke-width="1.5" stroke-dasharray="5 3" marker-end="url(#a-purple)"/>
  <text x="462" y="224" fill="#a78bfa" font-size="8">depends</text>

  <!-- Story US-005 depends on US-002 -->
  <rect x="160" y="380" width="250" height="52" rx="8" fill="#eab308" opacity="0.1" stroke="#eab308" stroke-width="1.5"/>
  <circle cx="180" cy="406" r="8" fill="#eab308" opacity="0.3"/>
  <text x="180" y="410" text-anchor="middle" fill="#fbbf24" font-size="8" font-weight="700">5</text>
  <text x="200" y="400" fill="#fbbf24" font-size="11" font-weight="700">US-005</text>
  <text x="200" y="420" fill="#94a3b8" font-size="9">CRUD operations</text>
  <text x="370" y="410" text-anchor="end" fill="#eab308" font-size="8">SLOT 2 · Gemini</text>

  <!-- Dependency arrow US-002 -> US-005 -->
  <path d="M 410 168 Q 470 168 470 290 Q 470 406 410 406" fill="none" stroke="#a78bfa" stroke-width="1.5" stroke-dasharray="5 3" marker-end="url(#a-purple)"/>

  <!-- Story US-006 depends on US-003 -->
  <rect x="160" y="444" width="250" height="52" rx="8" fill="#22c55e" opacity="0.1" stroke="#22c55e" stroke-width="1.5"/>
  <circle cx="180" cy="470" r="8" fill="#22c55e" opacity="0.3"/>
  <text x="180" y="474" text-anchor="middle" fill="#4ade80" font-size="8" font-weight="700">6</text>
  <text x="200" y="464" fill="#4ade80" font-size="11" font-weight="700">US-006</text>
  <text x="200" y="484" fill="#94a3b8" font-size="9">Dashboard views</text>
  <text x="370" y="474" text-anchor="end" fill="#22c55e" font-size="8">SLOT 3 · Codex</text>

  <!-- Dependency arrow US-003 -> US-006 -->
  <path d="M 410 232 Q 490 232 490 350 Q 490 470 410 470" fill="none" stroke="#a78bfa" stroke-width="1.5" stroke-dasharray="5 3" marker-end="url(#a-purple)"/>

  <!-- Parallel indicator L1 -->
  <line x1="148" y1="324" x2="148" y2="488" stroke="#8b5cf6" stroke-width="2" stroke-dasharray="3 3" opacity="0.4"/>
  <text x="144" y="408" text-anchor="end" fill="#8b5cf6" font-size="16" opacity="0.3">||</text>

  <!-- ====== LAYER 2 ====== -->
  <rect x="60" y="518" width="80" height="1" rx="0" fill="none"/>
  <text x="100" y="540" text-anchor="middle" fill="#f59e0b" font-size="10" font-weight="700">LAYER 2</text>
  <text x="100" y="554" text-anchor="middle" fill="#f59e0b" font-size="8" opacity="0.6">sequential</text>

  <!-- Transition zone 2 -->
  <rect x="160" y="510" width="880" height="32" rx="6" fill="#f59e0b" opacity="0.04" stroke="#f59e0b" stroke-width="0.5" stroke-dasharray="6 3"/>
  <text x="600" y="530" text-anchor="middle" fill="#f59e0b" font-size="9">StatusMonitor detects Layer 1 complete → LayeredDispatcher launches Layer 2</text>

  <!-- Story US-007 depends on US-004, US-005 -->
  <rect x="160" y="554" width="250" height="52" rx="8" fill="#f59e0b" opacity="0.1" stroke="#f59e0b" stroke-width="1.5"/>
  <circle cx="180" cy="580" r="8" fill="#f59e0b" opacity="0.3"/>
  <text x="180" y="584" text-anchor="middle" fill="#fbbf24" font-size="8" font-weight="700">7</text>
  <text x="200" y="574" fill="#fbbf24" font-size="11" font-weight="700">US-007</text>
  <text x="200" y="594" fill="#94a3b8" font-size="9">Integration + E2E tests</text>
  <text x="370" y="584" text-anchor="end" fill="#f59e0b" font-size="8">SLOT 1 · Claude</text>

  <!-- Dependency arrows to US-007 -->
  <path d="M 410 342 Q 520 342 520 460 Q 520 580 410 580" fill="none" stroke="#a78bfa" stroke-width="1.5" stroke-dasharray="5 3" marker-end="url(#a-purple)"/>
  <path d="M 410 406 Q 540 406 540 490 Q 540 580 412 580" fill="none" stroke="#a78bfa" stroke-width="1.5" stroke-dasharray="5 3"/>

  <!-- ====== RIGHT SIDE: Timeline ====== -->
  <rect x="620" y="70" width="540" height="440" rx="10" fill="#0f1724" stroke="#1e293b" stroke-width="1"/>
  <text x="890" y="95" text-anchor="middle" fill="#cbd5e1" font-size="11" font-weight="700">EXECUTION TIMELINE</text>
  <line x1="640" y1="105" x2="1140" y2="105" stroke="#1e293b" stroke-width="0.5"/>

  <!-- Timeline axis -->
  <line x1="680" y1="120" x2="680" y2="480" stroke="#334155" stroke-width="1"/>

  <!-- T=0 -->
  <circle cx="680" cy="135" r="4" fill="#3b82f6"/>
  <text x="698" y="133" fill="#94a3b8" font-size="9" font-weight="600">t = 0s</text>
  <text x="698" y="148" fill="#64748b" font-size="9">Dispatch Layer 0</text>

  <!-- Parallel bars L0 -->
  <rect x="800" y="125" width="220" height="14" rx="3" fill="#3b82f6" opacity="0.3" stroke="#3b82f6" stroke-width="0.5"/>
  <text x="910" y="136" text-anchor="middle" fill="#93c5fd" font-size="8">US-001 (Claude)</text>
  <rect x="800" y="143" width="180" height="14" rx="3" fill="#eab308" opacity="0.3" stroke="#eab308" stroke-width="0.5"/>
  <text x="890" y="154" text-anchor="middle" fill="#fde68a" font-size="8">US-002 (Gemini)</text>
  <rect x="800" y="161" width="200" height="14" rx="3" fill="#22c55e" opacity="0.3" stroke="#22c55e" stroke-width="0.5"/>
  <text x="900" y="172" text-anchor="middle" fill="#86efac" font-size="8">US-003 (Codex)</text>

  <!-- T=3min -->
  <circle cx="680" cy="210" r="4" fill="#22c55e"/>
  <text x="698" y="208" fill="#94a3b8" font-size="9" font-weight="600">t = 3min</text>
  <text x="698" y="223" fill="#4ade80" font-size="9">Layer 0 complete</text>

  <!-- Transition -->
  <rect x="800" y="204" width="300" height="18" rx="3" fill="#8b5cf6" opacity="0.1" stroke="#8b5cf6" stroke-width="0.5" stroke-dasharray="4 2"/>
  <text x="950" y="216" text-anchor="middle" fill="#a78bfa" font-size="8">StatusMonitor triggers next layer</text>

  <!-- T=3min+ -->
  <circle cx="680" cy="255" r="4" fill="#8b5cf6"/>
  <text x="698" y="253" fill="#94a3b8" font-size="9" font-weight="600">t = 3min+</text>
  <text x="698" y="268" fill="#64748b" font-size="9">Dispatch Layer 1</text>

  <!-- Parallel bars L1 -->
  <rect x="800" y="245" width="250" height="14" rx="3" fill="#3b82f6" opacity="0.3" stroke="#3b82f6" stroke-width="0.5"/>
  <text x="925" y="256" text-anchor="middle" fill="#93c5fd" font-size="8">US-004 (Claude)</text>
  <rect x="800" y="263" width="200" height="14" rx="3" fill="#eab308" opacity="0.3" stroke="#eab308" stroke-width="0.5"/>
  <text x="900" y="274" text-anchor="middle" fill="#fde68a" font-size="8">US-005 (Gemini)</text>
  <rect x="800" y="281" width="230" height="14" rx="3" fill="#22c55e" opacity="0.3" stroke="#22c55e" stroke-width="0.5"/>
  <text x="915" y="292" text-anchor="middle" fill="#86efac" font-size="8">US-006 (Codex)</text>

  <!-- T=7min -->
  <circle cx="680" cy="330" r="4" fill="#22c55e"/>
  <text x="698" y="328" fill="#94a3b8" font-size="9" font-weight="600">t = 7min</text>
  <text x="698" y="343" fill="#4ade80" font-size="9">Layer 1 complete</text>

  <!-- T=7min+ -->
  <circle cx="680" cy="380" r="4" fill="#f59e0b"/>
  <text x="698" y="378" fill="#94a3b8" font-size="9" font-weight="600">t = 7min+</text>
  <text x="698" y="393" fill="#64748b" font-size="9">Dispatch Layer 2</text>

  <!-- Bar L2 -->
  <rect x="800" y="372" width="280" height="14" rx="3" fill="#f59e0b" opacity="0.3" stroke="#f59e0b" stroke-width="0.5"/>
  <text x="940" y="383" text-anchor="middle" fill="#fde68a" font-size="8">US-007 Integration (Claude)</text>

  <!-- T=10min -->
  <circle cx="680" cy="430" r="6" fill="#22c55e" filter="url(#gl)"/>
  <text x="698" y="428" fill="#4ade80" font-size="9" font-weight="700">t = 10min</text>
  <text x="698" y="443" fill="#4ade80" font-size="9" font-weight="600">ALL COMPLETE</text>

  <!-- Merge bar -->
  <rect x="800" y="422" width="300" height="18" rx="3" fill="#c084fc" opacity="0.15" stroke="#c084fc" stroke-width="0.5"/>
  <text x="950" y="434" text-anchor="middle" fill="#c084fc" font-size="8">GitMaster merges all 3 branches</text>

  <!-- Final -->
  <circle cx="680" cy="468" r="4" fill="#c084fc"/>
  <text x="698" y="466" fill="#c084fc" font-size="9" font-weight="600">t = 10min+</text>
  <text x="698" y="481" fill="#c084fc" font-size="9">Feature merged to main</text>

</svg>